<svg xmlns="http://www.w3.org/2000/svg" xmlns:xlink="http://www.w3.org/1999/xlink" viewBox="0 0 329.82 177.04"><defs><style>.cls-1{fill:#00a1ef;}.cls-2{fill:url(#Безымянный_градиент_9);}.cls-3{fill:url(#Безымянный_градиент_9-2);}</style><linearGradient id="Безымянный_градиент_9" x1="114.17" y1="112.37" x2="261.4" y2="15.37" gradientUnits="userSpaceOnUse"><stop offset="0" stop-color="#00baf4"/><stop offset="1" stop-color="#00a1ef"/></linearGradient><linearGradient id="Безымянный_градиент_9-2" x1="123.49" y1="14.56" x2="250.74" y2="54.14" xlink:href="#Безымянный_градиент_9"/></defs><g id="Слой_2" data-name="Слой 2"><g id="Слой_1-2" data-name="Слой 1"><path class="cls-1" d="M37.45,169.29a20,20,0,0,1-7,5.46,21.13,21.13,0,0,1-9,1.88A21.17,21.17,0,0,1,13.1,175,20.39,20.39,0,0,1,2,163.94a21.89,21.89,0,0,1,0-16.53A20.39,20.39,0,0,1,13.1,136.34a21.18,21.18,0,0,1,8.32-1.63,20.23,20.23,0,0,1,8.49,1.68,19.91,19.91,0,0,1,6.53,4.88l-5.32,5.16A14.15,14.15,0,0,0,27,143.12a11.65,11.65,0,0,0-5.52-1.23,14,14,0,0,0-5.27,1,12.78,12.78,0,0,0-4.29,2.77A13.17,13.17,0,0,0,9,150a15.66,15.66,0,0,0,0,11.38,13.07,13.07,0,0,0,2.88,4.34,12.81,12.81,0,0,0,4.29,2.78,14.19,14.19,0,0,0,5.27,1,12.69,12.69,0,0,0,6-1.37,14.9,14.9,0,0,0,4.62-3.9Z"/><path class="cls-1" d="M21.42,177a21.63,21.63,0,0,1-8.48-1.66,21.29,21.29,0,0,1-6.77-4.51,21.07,21.07,0,0,1-4.51-6.77,22.21,22.21,0,0,1,0-16.85A20.76,20.76,0,0,1,12.94,136a21.62,21.62,0,0,1,8.48-1.65A20.69,20.69,0,0,1,30.08,136a20.22,20.22,0,0,1,6.66,5l.26.29L31.09,147l-.28-.33a13.91,13.91,0,0,0-4-3.21,11.27,11.27,0,0,0-5.33-1.19,13.63,13.63,0,0,0-5.12,1,12.36,12.36,0,0,0-4.15,2.68,12.82,12.82,0,0,0-2.8,4.21,15.36,15.36,0,0,0,0,11.06,12.72,12.72,0,0,0,2.8,4.21,12.24,12.24,0,0,0,4.15,2.69,13.83,13.83,0,0,0,5.12,1,12.4,12.4,0,0,0,5.78-1.32,14.45,14.45,0,0,0,4.49-3.79l.28-.35,6,5.67-.24.29a20.42,20.42,0,0,1-7.15,5.57A21.62,21.62,0,0,1,21.42,177Zm0-41.92a20.94,20.94,0,0,0-8.16,1.59A19.95,19.95,0,0,0,2.41,147.56a21.35,21.35,0,0,0,0,16.22,20.07,20.07,0,0,0,4.34,6.51,20.4,20.4,0,0,0,6.51,4.34,20.76,20.76,0,0,0,8.16,1.59,20.67,20.67,0,0,0,8.85-1.84,19.49,19.49,0,0,0,6.62-5.06l-4.78-4.53a15.1,15.1,0,0,1-4.47,3.65,13,13,0,0,1-6.16,1.42,14.75,14.75,0,0,1-5.42-1A13.09,13.09,0,0,1,11.64,166a13.57,13.57,0,0,1-3-4.47,16.08,16.08,0,0,1,0-11.69,13.62,13.62,0,0,1,3-4.48,13.06,13.06,0,0,1,4.42-2.86,14.55,14.55,0,0,1,5.42-1,12.12,12.12,0,0,1,5.71,1.28,14.75,14.75,0,0,1,3.95,3.08l4.73-4.59a19.4,19.4,0,0,0-6.13-4.49A19.89,19.89,0,0,0,21.42,135.12Z"/><path class="cls-1" d="M42,148.27h6.9v3.82h.44a7.08,7.08,0,0,1,1.35-1.85,10,10,0,0,1,1.88-1.47,10.85,10.85,0,0,1,2.24-1,8,8,0,0,1,2.38-.38,8.63,8.63,0,0,1,2.49.31,6.59,6.59,0,0,1,1.77.81l-2,6.56a6.73,6.73,0,0,0-1.49-.54,8.66,8.66,0,0,0-2-.19,6.15,6.15,0,0,0-2.74.59,6,6,0,0,0-2.1,1.66,7.85,7.85,0,0,0-1.35,2.51,9.81,9.81,0,0,0-.48,3.12v13.52H42Z"/><path class="cls-1" d="M49.79,176.14H41.64V147.87h7.7v3.46a8,8,0,0,1,1.1-1.38,10.12,10.12,0,0,1,2-1.53,10.67,10.67,0,0,1,2.33-1,8.91,8.91,0,0,1,5.11-.08,7,7,0,0,1,1.88.86l.24.17-2.18,7.31-.43-.22a6.42,6.42,0,0,0-1.4-.5,8.44,8.44,0,0,0-1.9-.19,5.87,5.87,0,0,0-2.57.56,5.55,5.55,0,0,0-2,1.55,7.53,7.53,0,0,0-1.27,2.38,9.28,9.28,0,0,0-.46,3Zm-7.34-.81H49V162.21a10.3,10.3,0,0,1,.49-3.25,8.47,8.47,0,0,1,1.42-2.64,6.55,6.55,0,0,1,2.24-1.77,6.68,6.68,0,0,1,2.92-.63,9,9,0,0,1,2.09.21,7.47,7.47,0,0,1,1.13.36L61,148.68a6.21,6.21,0,0,0-1.4-.6,8.15,8.15,0,0,0-4.64.07,10.22,10.22,0,0,0-2.15,1,9.54,9.54,0,0,0-1.8,1.4,6.86,6.86,0,0,0-1.27,1.75l-.11.22H48.53v-3.81H42.45Z"/><path class="cls-1" d="M76.17,147.38A15.29,15.29,0,0,1,82,148.47a13.64,13.64,0,0,1,7.62,7.65,16.43,16.43,0,0,1,0,11.77A13.64,13.64,0,0,1,82,175.54a16.27,16.27,0,0,1-11.71,0,13.62,13.62,0,0,1-7.63-7.65,16.43,16.43,0,0,1,0-11.77,13.62,13.62,0,0,1,7.63-7.65A15.2,15.2,0,0,1,76.17,147.38Zm0,22.47a7.28,7.28,0,0,0,2.72-.53,7,7,0,0,0,2.32-1.54,7.27,7.27,0,0,0,1.6-2.47,9.55,9.55,0,0,0,0-6.61,7.17,7.17,0,0,0-1.6-2.47,7,7,0,0,0-2.32-1.54,7.28,7.28,0,0,0-2.72-.53,7,7,0,0,0-5,2.07,7.32,7.32,0,0,0-1.6,2.47,9.55,9.55,0,0,0,0,6.61,7.42,7.42,0,0,0,1.6,2.47,7,7,0,0,0,5,2.07Z"/><path class="cls-1" d="M76.17,177a15.69,15.69,0,0,1-6-1.13,14.31,14.31,0,0,1-4.73-3.11A14.14,14.14,0,0,1,62.32,168a16.68,16.68,0,0,1,0-12.07,14.14,14.14,0,0,1,3.11-4.76,14.31,14.31,0,0,1,4.73-3.11,16.55,16.55,0,0,1,12,0A14,14,0,0,1,90,156,16.82,16.82,0,0,1,90,168a14,14,0,0,1-7.85,7.87A15.65,15.65,0,0,1,76.17,177Zm0-29.26a14.84,14.84,0,0,0-5.7,1.07,13.15,13.15,0,0,0-7.4,7.42,16,16,0,0,0,0,11.47A13.42,13.42,0,0,0,66,172.22a13.28,13.28,0,0,0,4.46,2.94,15.86,15.86,0,0,0,11.4,0,13.23,13.23,0,0,0,7.4-7.42,15.9,15.9,0,0,0,0-11.47,13.15,13.15,0,0,0-7.4-7.42A14.8,14.8,0,0,0,76.17,147.78Zm0,22.48a7.46,7.46,0,0,1-5.33-2.2,7.7,7.7,0,0,1-1.69-2.6,10.09,10.09,0,0,1,0-6.91,7.9,7.9,0,0,1,1.69-2.61,7.64,7.64,0,0,1,2.43-1.63,7.73,7.73,0,0,1,5.77,0A7.32,7.32,0,0,1,81.5,156a7.6,7.6,0,0,1,1.69,2.6,9.94,9.94,0,0,1,0,6.91,7.7,7.7,0,0,1-1.69,2.6A7.42,7.42,0,0,1,79,169.7,7.68,7.68,0,0,1,76.17,170.26Zm0-15.69a6.64,6.64,0,0,0-2.59.5,6.52,6.52,0,0,0-2.16,1.45,6.9,6.9,0,0,0-1.51,2.33,9.17,9.17,0,0,0,0,6.31,6.85,6.85,0,0,0,1.51,2.33,6.63,6.63,0,0,0,2.16,1.45,6.92,6.92,0,0,0,5.16,0,6.54,6.54,0,0,0,2.19-1.45,6.83,6.83,0,0,0,1.5-2.33,9.17,9.17,0,0,0,0-6.31,6.88,6.88,0,0,0-1.5-2.33,6.54,6.54,0,0,0-2.19-1.45A6.91,6.91,0,0,0,76.17,154.57Z"/><path class="cls-1" d="M92,148.27h8.24l4.54,17.21h.39l5.44-17.21h7.56l5.5,17.21H124l4.48-17.21h8.13l-8.8,27.46h-7.9l-5.49-17.31h-.4l-5.49,17.31h-7.79Z"/><path class="cls-1" d="M128.14,176.14h-8.5l-5.39-17-5.39,17h-8.38l-9.06-28.27h9.11L105,164.69l5.31-16.82h8.16l5.37,16.82,4.39-16.82h9Zm-7.9-.81h7.3l8.54-26.65h-7.25l-4.49,17.21h-1l-5.49-17.21h-7l-5.44,17.21h-1L99.9,148.68H92.53l8.54,26.65h7.19l5.5-17.32h1Z"/><path class="cls-1" d="M159.89,172.43h-.44a8.36,8.36,0,0,1-3.14,3,10.35,10.35,0,0,1-5.25,1.23,12,12,0,0,1-4.48-.85,13.34,13.34,0,0,1-4.76-3.27,14.29,14.29,0,0,1-2.88-4.62,16.72,16.72,0,0,1,0-11.77,14.29,14.29,0,0,1,2.88-4.62,13.34,13.34,0,0,1,4.76-3.27,11.85,11.85,0,0,1,4.48-.85,10.35,10.35,0,0,1,5.25,1.23,8.36,8.36,0,0,1,3.14,3h.44l-.44-3.92v-12h7.34v40.12h-6.9Zm-7.34-2.58a7.47,7.47,0,0,0,2.78-.53,7.08,7.08,0,0,0,2.32-1.54,7.65,7.65,0,0,0,1.63-2.47,9.26,9.26,0,0,0,0-6.61,7.54,7.54,0,0,0-1.63-2.47,7.08,7.08,0,0,0-2.32-1.54,7.47,7.47,0,0,0-2.78-.53,7.07,7.07,0,0,0-2.77.56,7.37,7.37,0,0,0-2.33,1.57,7.63,7.63,0,0,0-1.62,2.46,8.83,8.83,0,0,0,0,6.5,7.57,7.57,0,0,0,1.62,2.47,7.37,7.37,0,0,0,2.33,1.57A7.07,7.07,0,0,0,152.55,169.85Z"/><path class="cls-1" d="M151.05,177a12.35,12.35,0,0,1-4.63-.89,13.85,13.85,0,0,1-4.89-3.36,14.66,14.66,0,0,1-3-4.75,17.11,17.11,0,0,1,0-12.07,14.66,14.66,0,0,1,3-4.75,13.7,13.7,0,0,1,4.9-3.37,12.49,12.49,0,0,1,4.62-.88h0a10.8,10.8,0,0,1,5.45,1.29,9.21,9.21,0,0,1,2.88,2.49L159,147.7V135.2h8.15v40.94h-7.7v-3a9.17,9.17,0,0,1-3,2.63,10.8,10.8,0,0,1-5.45,1.29Zm0-29.26a11.57,11.57,0,0,0-4.32.83,13,13,0,0,0-4.61,3.17,14,14,0,0,0-2.81,4.49,16.48,16.48,0,0,0,0,11.47,14,14,0,0,0,2.81,4.49,13,13,0,0,0,4.61,3.17,11.57,11.57,0,0,0,4.32.82h0a9.94,9.94,0,0,0,5-1.17,8,8,0,0,0,3-2.83l.12-.2h1.09v3.31h6.08V136h-6.53v11.64l.5,4.33h-1.14l-.12-.2a8,8,0,0,0-3-2.83,10,10,0,0,0-5-1.18Zm1.5,22.48a7.32,7.32,0,0,1-2.93-.6,7.56,7.56,0,0,1-2.45-1.65,8.08,8.08,0,0,1-1.72-2.6,9.38,9.38,0,0,1,0-6.81,8.22,8.22,0,0,1,1.71-2.6,8.09,8.09,0,0,1,2.46-1.66,7.82,7.82,0,0,1,5.86,0,7.42,7.42,0,0,1,2.46,1.64,8.06,8.06,0,0,1,1.71,2.59,9.56,9.56,0,0,1,0,6.93,7.9,7.9,0,0,1-1.71,2.59,7.52,7.52,0,0,1-2.46,1.64A7.83,7.83,0,0,1,152.55,170.26Zm0-15.69a6.61,6.61,0,0,0-2.61.52,6.91,6.91,0,0,0-2.2,1.49,7.39,7.39,0,0,0-1.54,2.33,8.55,8.55,0,0,0,0,6.19,7.39,7.39,0,0,0,1.54,2.33,6.72,6.72,0,0,0,2.2,1.48,6.87,6.87,0,0,0,5.23,0,6.45,6.45,0,0,0,2.19-1.45,7.17,7.17,0,0,0,1.54-2.34,8.68,8.68,0,0,0,0-6.29,7.22,7.22,0,0,0-1.54-2.34,6.35,6.35,0,0,0-2.19-1.45A7,7,0,0,0,152.55,154.57Z"/><path class="cls-1" d="M220.25,169.29a20,20,0,0,1-7,5.46,22.38,22.38,0,0,1-17.34.26,20.39,20.39,0,0,1-11.07-11.07,21.89,21.89,0,0,1,0-16.53,20.39,20.39,0,0,1,11.07-11.07,21.18,21.18,0,0,1,8.32-1.63,20.23,20.23,0,0,1,8.49,1.68,19.91,19.91,0,0,1,6.53,4.88l-5.32,5.16a14.15,14.15,0,0,0-4.12-3.31,11.65,11.65,0,0,0-5.52-1.23,14,14,0,0,0-5.27,1,12.78,12.78,0,0,0-4.29,2.77,13,13,0,0,0-2.88,4.34,15.66,15.66,0,0,0,0,11.38,12.68,12.68,0,0,0,7.17,7.12,14.19,14.19,0,0,0,5.27,1,12.69,12.69,0,0,0,6-1.37,14.9,14.9,0,0,0,4.62-3.9Z"/><path class="cls-1" d="M204.22,177a21.63,21.63,0,0,1-8.48-1.66,21.64,21.64,0,0,1-11.28-28.13A20.76,20.76,0,0,1,195.74,136a21.62,21.62,0,0,1,8.48-1.65,20.69,20.69,0,0,1,8.66,1.71,20.22,20.22,0,0,1,6.66,5l.26.29L213.89,147l-.28-.33a13.91,13.91,0,0,0-4-3.21,11.27,11.27,0,0,0-5.33-1.19,13.63,13.63,0,0,0-5.12,1,12.36,12.36,0,0,0-4.15,2.68,12.82,12.82,0,0,0-2.8,4.21,15.36,15.36,0,0,0,0,11.06,12.72,12.72,0,0,0,2.8,4.21,12.24,12.24,0,0,0,4.15,2.69,13.83,13.83,0,0,0,5.12,1,12.4,12.4,0,0,0,5.78-1.32,14.59,14.59,0,0,0,4.49-3.79l.28-.35,6,5.67-.24.29a20.33,20.33,0,0,1-7.15,5.57A21.62,21.62,0,0,1,204.22,177Zm0-41.92a20.94,20.94,0,0,0-8.16,1.59,19.95,19.95,0,0,0-10.85,10.85,21.35,21.35,0,0,0,0,16.22,20.07,20.07,0,0,0,4.34,6.51,20.4,20.4,0,0,0,6.51,4.34,22,22,0,0,0,17-.25,19.49,19.49,0,0,0,6.62-5.06l-4.78-4.53a15.1,15.1,0,0,1-4.47,3.65,13,13,0,0,1-6.16,1.42,14.75,14.75,0,0,1-5.42-1,13.09,13.09,0,0,1-4.42-2.87,13.47,13.47,0,0,1-3-4.47,16.08,16.08,0,0,1,0-11.69,13.62,13.62,0,0,1,3-4.48,13.06,13.06,0,0,1,4.42-2.86,14.55,14.55,0,0,1,5.42-1,12.12,12.12,0,0,1,5.71,1.28,14.75,14.75,0,0,1,3.95,3.08l4.73-4.59a19.4,19.4,0,0,0-6.13-4.49A19.89,19.89,0,0,0,204.22,135.12Z"/><path class="cls-1" d="M224.84,175.73V135.61h7.34v40.12Z"/><path class="cls-1" d="M232.59,176.14h-8.15V135.2h8.15Zm-7.34-.81h6.53V136h-6.53Z"/><path class="cls-1" d="M251.18,147.38a15.29,15.29,0,0,1,5.86,1.09,13.64,13.64,0,0,1,7.62,7.65,16.43,16.43,0,0,1,0,11.77,13.64,13.64,0,0,1-7.62,7.65,16.27,16.27,0,0,1-11.71,0,13.62,13.62,0,0,1-7.63-7.65,16.43,16.43,0,0,1,0-11.77,13.62,13.62,0,0,1,7.63-7.65A15.2,15.2,0,0,1,251.18,147.38Zm0,22.47a7.28,7.28,0,0,0,2.72-.53,7.12,7.12,0,0,0,2.33-1.54,7.4,7.4,0,0,0,1.59-2.47,9.55,9.55,0,0,0,0-6.61,7.3,7.3,0,0,0-1.59-2.47,7.12,7.12,0,0,0-2.33-1.54,7.28,7.28,0,0,0-2.72-.53,7.19,7.19,0,0,0-2.74.53,7.1,7.1,0,0,0-2.3,1.54,7.32,7.32,0,0,0-1.6,2.47,9.55,9.55,0,0,0,0,6.61,7.42,7.42,0,0,0,1.6,2.47,7.1,7.1,0,0,0,2.3,1.54A7.19,7.19,0,0,0,251.18,169.85Z"/><path class="cls-1" d="M251.18,177a15.69,15.69,0,0,1-6-1.13,14.31,14.31,0,0,1-4.73-3.11,14.14,14.14,0,0,1-3.11-4.76,16.68,16.68,0,0,1,0-12.07,14.14,14.14,0,0,1,3.11-4.76,14.31,14.31,0,0,1,4.73-3.11,16.55,16.55,0,0,1,12,0A14,14,0,0,1,265,156,16.82,16.82,0,0,1,265,168a14,14,0,0,1-7.85,7.87A15.65,15.65,0,0,1,251.18,177Zm0-29.26a14.87,14.87,0,0,0-5.7,1.07,13.41,13.41,0,0,0-4.46,2.93,13.56,13.56,0,0,0-2.94,4.49,16,16,0,0,0,0,11.47,13.42,13.42,0,0,0,2.94,4.48,13.28,13.28,0,0,0,4.46,2.94,15.86,15.86,0,0,0,11.4,0,13.15,13.15,0,0,0,7.4-7.42,15.9,15.9,0,0,0,0-11.47,13.07,13.07,0,0,0-7.4-7.42A14.8,14.8,0,0,0,251.18,147.78Zm0,22.48a7.43,7.43,0,0,1-2.9-.57,7.32,7.32,0,0,1-2.43-1.63,7.7,7.7,0,0,1-1.69-2.6,10.09,10.09,0,0,1,0-6.91,7.9,7.9,0,0,1,1.69-2.61,7.64,7.64,0,0,1,2.43-1.63,7.77,7.77,0,0,1,5.77,0,7.32,7.32,0,0,1,2.46,1.64,7.6,7.6,0,0,1,1.69,2.6,9.94,9.94,0,0,1,0,6.91,7.7,7.7,0,0,1-1.69,2.6,7.42,7.42,0,0,1-2.46,1.64A7.68,7.68,0,0,1,251.18,170.26Zm0-15.69a6.64,6.64,0,0,0-2.59.5,6.52,6.52,0,0,0-2.16,1.45,6.9,6.9,0,0,0-1.51,2.33,9.17,9.17,0,0,0,0,6.31,7,7,0,0,0,1.51,2.33,6.63,6.63,0,0,0,2.16,1.45,6.92,6.92,0,0,0,5.16,0,6.54,6.54,0,0,0,2.19-1.45,7,7,0,0,0,1.51-2.33,9.32,9.32,0,0,0,0-6.31,7.06,7.06,0,0,0-1.51-2.33,6.54,6.54,0,0,0-2.19-1.45A6.91,6.91,0,0,0,251.18,154.57Z"/><path class="cls-1" d="M289.18,172.15h-.45a9.38,9.38,0,0,1-3.48,3.28,10.16,10.16,0,0,1-5,1.2c-3.48,0-6.06-1.06-7.77-3.19a13.26,13.26,0,0,1-2.54-8.52V148.27h7.34V164a6.36,6.36,0,0,0,1.31,4.4,5,5,0,0,0,3.84,1.43,5.32,5.32,0,0,0,2.66-.64,6.28,6.28,0,0,0,2-1.74,7.91,7.91,0,0,0,1.23-2.58,11.57,11.57,0,0,0,.42-3.17V148.27h7.34v27.46h-6.89Z"/><path class="cls-1" d="M280.27,177c-3.59,0-6.31-1.13-8.08-3.35a13.7,13.7,0,0,1-2.64-8.77v-17h8.15V164a6,6,0,0,0,1.21,4.12,4.58,4.58,0,0,0,3.54,1.3,5,5,0,0,0,2.46-.59,5.93,5.93,0,0,0,1.84-1.62,7.63,7.63,0,0,0,1.17-2.45,11.2,11.2,0,0,0,.4-3.06V147.87h8.16v28.27h-7.71v-3.32a9.66,9.66,0,0,1-3.32,3A10.54,10.54,0,0,1,280.27,177Zm-9.91-28.36v16.24a12.92,12.92,0,0,0,2.46,8.26c1.61,2,4.12,3,7.45,3a9.78,9.78,0,0,0,4.79-1.15,8.87,8.87,0,0,0,3.32-3.14l.12-.19h1.08v3.59h6.08V148.68h-6.52v13a12,12,0,0,1-.44,3.28,8.22,8.22,0,0,1-1.3,2.71,6.48,6.48,0,0,1-2.09,1.85,5.77,5.77,0,0,1-2.86.7,5.4,5.4,0,0,1-4.14-1.56,6.77,6.77,0,0,1-1.42-4.68V148.68Z"/><path class="cls-1" d="M322.52,172.43h-.45a8.29,8.29,0,0,1-3.14,3,10.3,10.3,0,0,1-5.25,1.23,12,12,0,0,1-4.48-.85,13.39,13.39,0,0,1-4.75-3.27,14.32,14.32,0,0,1-2.89-4.62,16.87,16.87,0,0,1,0-11.77,14.32,14.32,0,0,1,2.89-4.62,13.34,13.34,0,0,1,4.76-3.27,11.8,11.8,0,0,1,4.47-.85,10.3,10.3,0,0,1,5.25,1.23,8.29,8.29,0,0,1,3.14,3h.45l-.45-3.92v-12h7.34v40.12h-6.89Zm-7.34-2.58a7.42,7.42,0,0,0,2.77-.53,7,7,0,0,0,2.33-1.54,7.79,7.79,0,0,0,1.62-2.47,9.12,9.12,0,0,0,0-6.61,7.68,7.68,0,0,0-1.62-2.47,7,7,0,0,0-2.33-1.54,7.42,7.42,0,0,0-2.77-.53,7.12,7.12,0,0,0-2.78.56,7.32,7.32,0,0,0-2.32,1.57,7.82,7.82,0,0,0-1.63,2.46,9,9,0,0,0,0,6.5,7.76,7.76,0,0,0,1.63,2.47,7.32,7.32,0,0,0,2.32,1.57A7.12,7.12,0,0,0,315.18,169.85Z"/><path class="cls-1" d="M313.67,177a12.34,12.34,0,0,1-4.62-.89,14,14,0,0,1-4.9-3.36,15,15,0,0,1-3-4.75,17.25,17.25,0,0,1,0-12.07,15,15,0,0,1,3-4.75,13.88,13.88,0,0,1,4.9-3.37,12.35,12.35,0,0,1,4.64-.88,10.8,10.8,0,0,1,5.45,1.29,9.21,9.21,0,0,1,2.88,2.49l-.35-3.05V135.2h8.15v40.94h-7.71v-3a9.13,9.13,0,0,1-3,2.63,10.84,10.84,0,0,1-5.46,1.29Zm0-29.26a11.48,11.48,0,0,0-4.31.83,13,13,0,0,0-4.62,3.17,14,14,0,0,0-2.8,4.49,16.33,16.33,0,0,0,0,11.47,14,14,0,0,0,2.8,4.49,13.12,13.12,0,0,0,4.62,3.17,10.59,10.59,0,0,0,4.32.82,10,10,0,0,0,5.05-1.17,8,8,0,0,0,3-2.83l.12-.2h1.09v3.31H329V136h-6.53v11.64L323,152h-1.14l-.12-.2a8,8,0,0,0-3-2.83,10.09,10.09,0,0,0-5.05-1.18Zm1.51,22.48a7.32,7.32,0,0,1-2.93-.6,7.71,7.71,0,0,1-2.46-1.65,8.06,8.06,0,0,1-1.71-2.6,9.24,9.24,0,0,1,0-6.81,8.06,8.06,0,0,1,1.71-2.6,7.65,7.65,0,0,1,8.32-1.69,7.52,7.52,0,0,1,2.46,1.64,8.06,8.06,0,0,1,1.71,2.59,9.56,9.56,0,0,1,0,6.93,8.17,8.17,0,0,1-1.71,2.59,7.52,7.52,0,0,1-2.46,1.64A7.87,7.87,0,0,1,315.18,170.26Zm0-15.69a6.69,6.69,0,0,0-2.62.52,7,7,0,0,0-2.19,1.49,7.12,7.12,0,0,0-1.54,2.33,8.55,8.55,0,0,0,0,6.19,7.23,7.23,0,0,0,1.54,2.33,6.78,6.78,0,0,0,2.19,1.48,6.89,6.89,0,0,0,5.24,0,6.54,6.54,0,0,0,2.19-1.45,7.33,7.33,0,0,0,1.54-2.34,8.82,8.82,0,0,0,0-6.29,7.33,7.33,0,0,0-1.54-2.34,6.54,6.54,0,0,0-2.19-1.45A7.06,7.06,0,0,0,315.18,154.57Z"/><path class="cls-2" d="M246.23,81.25a30.25,30.25,0,0,0-1.94-10.31A43.8,43.8,0,0,0,238,60.25a1,1,0,0,0-1.71.14,46,46,0,0,1-6.16,8.16,1.05,1.05,0,0,0-.1,1.3c2,3,4.06,7.7,4.34,11a19.74,19.74,0,0,1-5.1,15,19,19,0,0,1-14.09,6.28c-11.13,0-22.44,0-33.39,0H120.47c-12.28,0-21.88-7.79-24.46-19.83a23.85,23.85,0,0,1,4-18.63A24.14,24.14,0,0,1,116.34,53.5a27.16,27.16,0,0,1,9.67.41c4.26.94,6.8-.5,8.22-4.66,1.68-4.94,8.47-12.5,13.11-14.42a17.53,17.53,0,0,1,2.78-.87,1,1,0,0,0,.81-.92,46.56,46.56,0,0,1,2-10.07,1,1,0,0,0-1.13-1.36c-11.18,1.32-22.24,10.13-27.3,19.78a35.39,35.39,0,0,0-10.8.32A36.65,36.65,0,0,0,84.12,83.87a36.74,36.74,0,0,0,36,30.36c17.12,0,32.81.08,47.52.08,16.87,0,32.46,0,47.43-.11,10.78,0,19.83-4.88,26.16-14a26.75,26.75,0,0,0,2.61-4.68,30.45,30.45,0,0,0,2.46-12.88Z"/><path class="cls-3" d="M196.64,0A37.31,37.31,0,1,0,234,37.31,37.32,37.32,0,0,0,196.64,0Zm20.74,32.38A7.34,7.34,0,1,1,210,39.69,7.28,7.28,0,0,1,217.38,32.38Zm-20.84-5.92a9.88,9.88,0,1,1-9.85,9.9A9.83,9.83,0,0,1,196.54,26.46Zm-20.63,5.92a7.34,7.34,0,1,1-7.29,7.37A7.28,7.28,0,0,1,175.91,32.38Zm-.2,30.88a32.8,32.8,0,0,1-8.51-10.84l.55-.49a12.89,12.89,0,0,1,14.34-1.37c.41.22.45.36.08.67A16.89,16.89,0,0,0,180,53.55a21.12,21.12,0,0,0-4.26,9.5C175.74,63.13,175.73,63.2,175.71,63.26Zm20.94,7.57a32.52,32.52,0,0,1-18-5.39,18,18,0,0,1,33.87-7,17,17,0,0,1,2,7.06A32.63,32.63,0,0,1,196.65,70.83Zm20.93-7.57c0-.06,0-.13-.05-.21a21.12,21.12,0,0,0-4.26-9.5,16.36,16.36,0,0,0-2.16-2.32c-.35-.31-.31-.45.09-.67a12.89,12.89,0,0,1,14.34,1.37l.55.49A32.55,32.55,0,0,1,217.58,63.26Z"/></g></g></svg>